PathFileType	3	(X/Y/Z)	D:\Vicon Database\Healthy Subjects\S0040\Jan. 30, 2020\Force Plate Walk 7.trc
DataRate	CameraRate	NumFrames	NumMarkers	Units	OrigDataRate	OrigDataStartFrame	OrigNumFrames
100.0	100.0	4	53	mm	100.0	433	319	
Frame#	Time	sternum_cluster1			sternum_cluster2			sternum_cluster3			left_asis			right_asis			left_psis			right_psis			sacrum_cluster1			sacrum_cluster2			sacrum_cluster3			left_lat_femoral_epicondyle			left_anterior_thigh15			left_anterior_thigh25			left_anterior_thigh50			left_lateral_thigh25			left_lateral_thigh50			left_thigh_cluster1			left_thigh_cluster2			left_thigh_cluster3			left_fibular_head			left_tibial_tuberosity			left_anterior_shank30			left_lateral_malleolus			left_shank_cluster1			left_shank_cluster2			left_shank_cluster3			left_heel			left_metatarsal2			left_foot_cluster1			left_foot_cluster2			left_foot_cluster3			right_lat_femoral_epicondyle			right_anterior_thigh15			right_anterior_thigh25			right_anterior_thigh50			right_lateral_thigh25			right_lateral_thigh50			right_thigh_cluster1			right_thigh_cluster2			right_thigh_cluster3			right_fibular_head			right_tibial_tuberosity			right_lateral_distal_shank			right_anterior_shank30			right_lateral_malleolus			right_shank_cluster1			right_shank_cluster2			right_shank_cluster3			right_heel			right_metatarsal2			right_foot_cluster1			right_foot_cluster2			right_foot_cluster3			
		X1	Y1	Z1	X2	Y2	Z2	X3	Y3	Z3	X4	Y4	Z4	X5	Y5	Z5	X6	Y6	Z6	X7	Y7	Z7	X8	Y8	Z8	X9	Y9	Z9	X10	Y10	Z10	X11	Y11	Z11	X12	Y12	Z12	X13	Y13	Z13	X14	Y14	Z14	X15	Y15	Z15	X16	Y16	Z16	X17	Y17	Z17	X18	Y18	Z18	X19	Y19	Z19	X20	Y20	Z20	X21	Y21	Z21	X22	Y22	Z22	X23	Y23	Z23	X24	Y24	Z24	X25	Y25	Z25	X26	Y26	Z26	X27	Y27	Z27	X28	Y28	Z28	X29	Y29	Z29	X30	Y30	Z30	X31	Y31	Z31	X32	Y32	Z32	X33	Y33	Z33	X34	Y34	Z34	X35	Y35	Z35	X36	Y36	Z36	X37	Y37	Z37	X38	Y38	Z38	X39	Y39	Z39	X40	Y40	Z40	X41	Y41	Z41	X42	Y42	Z42	X43	Y43	Z43	X44	Y44	Z44	X45	Y45	Z45	X46	Y46	Z46	X47	Y47	Z47	X48	Y48	Z48	X49	Y49	Z49	X50	Y50	Z50	X51	Y51	Z51	X52	Y52	Z52	X53	Y53	Z53	
433	4.32	862.85535	1425.231	-167.9817	849.34094	1398.2594	-160.14708	852.16589	1400.936	-197.92873	862.81824	1036.7389	-47.824657	862.85474	1060.6934	-296.41901	1029.231	1052.1249	-96.250587	1032.4563	1059.3497	-214.51987	1040.4198	1112.6582	-158.14163	1046.0177	1088.0067	-171.78056	1047.7844	1080.2985	-132.48033	971.35065	514.48267	-9.1769552	854.42554	569.05066	-44.022957	831.43469	658.71826	-34.297535	829.63275	801.69592	-34.067734	955.87988	659.73706	2.0868926	934.7597	804.90106	18.522617	946.17883	762.18927	24.861589	950.39648	733.51794	23.444479	914.22528	740.36499	31.090628	1007.4502	454.91647	4.5757971	973.05322	401.71817	-42.456951				1302.7855	230.06056	-26.853647	1011.8991	358.67917	-65.497536	1032.7797	340.44757	-55.801407	1035.4349	344.03925	-93.334099	1348.0992	293.16623	-68.010414	1299.4369	80.6576	-68.628532	1264.1858	146.51341	-53.199146	1279.2153	119.03268	-46.851563	1265.369	118.72495	-82.966225	766.51611	531.82373	-306.2291	716.62573	641.50452	-247.9713	728.19482	721.19458	-249.24341	768.9519	841.97961	-260.12683	812.52374	684.37927	-336.40045	862.43866	823.93262	-364.89957	850.88599	770.97729	-371.31818	831.86438	749.99048	-366.08426	868.09827	735.93127	-363.44791	765.91156	462.81674	-306.98376	715.5874	462.21814	-256.41855	769.78564	194.16177	-282.582	728.90784	212.0202	-232.91339	774.06458	93.931396	-265.25766	730.55151	396.57147	-200.53743	735.31342	368.96829	-192.89122	709.32764	366.43066	-218.70535	849.66248	59.845264	-229.57974	631.19958	70.318268	-221.2195	688.11896	115.37247	-220.73117	664.07123	102.13033	-211.42786	663.23059	105.40608	-248.75081
434	4.33	847.55139	1426.3434	-168.81642	834.00458	1399.3816	-160.79678	836.66608	1402.0756	-198.6436	849.10712	1037.8224	-48.099316	847.474	1062.4913	-296.45978	1015.0372	1052.2732	-97.117004	1017.5696	1060.6265	-215.15399	1025.9088	1113.2941	-158.88901	1030.9725	1088.7397	-172.67444	1033.3425	1080.7354	-133.29315	942.6795	513.74207	-10.026174	828.88098	571.00067	-46.805386	808.75812	661.24152	-36.641418	811.47693	804.21655	-34.961933	932.61414	659.08649	1.2378713	916.63348	804.5451	18.085426	926.21149	761.9588	24.069769	930.13385	732.89429	22.971817	893.80371	740.67035	30.35515	977.59875	454.74271	4.024775	942.71289	401.91782	-43.596153				1276.431	236.84917	-27.014471	983.1947	359.33636	-66.552109	1003.6898	341.62683	-56.423317	1008.6093	345.69284	-94.922951	1323.145	299.36383	-67.778839	1271.9468	87.662193	-67.929787	1237.3931	153.98164	-53.706879	1251.5779	126.479	-46.67017	1239.8496	125.54571	-83.738548	758.37476	530.92773	-307.39218	705.85883	639.44653	-251.21213	715.78271	719.73651	-251.36047	754.98694	841.34204	-260.87042	802.00397	684.24615	-337.24896	848.6803	825.00531	-365.47058	838.32294	771.93085	-372.03101	820.77875	750.23096	-366.15555	856.22729	737.21368	-364.10318	758.45789	462.22498	-308.26016	707.58221	460.76138	-258.22131	767.54822	193.82886	-283.2449	725.83801	210.70653	-233.99698	773.43866	93.89093	-265.33743	722.68817	395.21844	-201.95357	728.74762	367.44891	-194.25563	702.59155	364.5484	-220.35881	849.24341	59.761127	-229.3775	630.99323	69.616928	-221.35995	687.84943	114.92072	-220.79941	663.79071	101.63673	-211.46194	662.89252	104.96561	-248.78201
435	4.34	832.35126	1427.5789	-169.30936	818.87512	1400.5895	-161.24239	821.29108	1403.2888	-199.08122	835.35321	1039.3435	-47.828091	832.20215	1064.3375	-296.28287	1001.1418	1052.9371	-97.936798	1002.9358	1061.9294	-216.17717	1011.6366	1114.1328	-159.55533	1018.0181	1090.0118	-172.9408	1019.2202	1081.657	-134.2556	913.9187	513.67273	-11.072984	802.6687	574.06061	-49.593132	786.28552	664.35657	-39.342945	793.55841	807.03156	-35.920273	909.24384	658.69434	0.22755848	898.69226	804.70703	17.493111	906.74139	761.7641	23.675808	909.71008	732.4939	22.427347	873.7074	740.55786	29.724577	947.94354	455.19385	3.0918624	910.72443	403.84686	-44.250092				1249.2938	242.83943	-27.515135	953.77869	361.21759	-68.211929	974.15454	343.56647	-57.981842	980.12238	347.78345	-96.880127	1298.5979	304.01147	-67.810966	1241.011	93.630997	-67.727539	1208.3115	161.23943	-54.563427	1221.635	133.28757	-47.342968	1209.699	132.74936	-83.862938	750.97882	529.94275	-308.32483	696.3183	637.73376	-253.25426	704.33258	718.2088	-252.83817	741.66534	840.60248	-261.50699	792.57813	683.72247	-337.50433	835.50812	825.87256	-365.67819	826.29944	772.47723	-372.53589	808.03162	750.73987	-367.02161	844.31421	738.07245	-364.57523	752.01105	461.46524	-309.2612	700.57538	459.21994	-259.80515	766.27264	193.40573	-283.4704	723.38202	209.42062	-234.95772	773.02759	93.851646	-265.31061	715.54358	394.22647	-202.66084	722.64819	366.15149	-195.31905	696.65533	362.66586	-221.51936	849.51923	60.336361	-229.69797	630.82062	69.112076	-221.34012	687.70306	114.57813	-220.73146	663.62665	101.2207	-211.3766	662.73914	104.59536	-248.69034
436	4.35	817.29773	1428.9569	-169.70227	803.96088	1401.9459	-161.47159	806.08496	1404.5974	-199.3632	821.95178	1041.2249	-47.58099	817.3736	1066.1704	-296.14685	987.40558	1053.9692	-99.091385	988.51837	1063.4698	-217.22607	997.64569	1115.7863	-160.61591	1003.6862	1091.3112	-173.88748	1005.0621	1082.8536	-135.60623	885.12793	514.63287	-12.215459	776.94916	577.81537	-51.971958	763.92877	668.17682	-42.037331	775.75867	810.35107	-36.985142	885.7486	658.9538	-0.9442479	880.84631	805.50482	16.752102	886.89142	761.93237	23.03791	889.11456	732.66559	21.742996	853.36267	742.43359	29.067844	918.27869	456.57043	1.8208469	880.50476	405.4556	-46.356339				1220.8408	247.49681	-28.370901	923.97382	363.68539	-70.282494	944.62939	346.32706	-60.328152	948.80139	350.61182	-97.635712	1272.9248	306.78241	-68.507484	1208.626	98.264404	-67.809616	1178.3335	167.46971	-55.728909	1189.7733	139.24373	-47.930779	1178.4152	138.65643	-84.608589	744.05042	529.12433	-309.00482	687.19586	636.34741	-253.8549	693.72736	716.86261	-253.38086	728.79871	840.03528	-261.96954	783.68903	683.58374	-337.23004	822.71899	826.6571	-366.0228	814.5177	773.09308	-372.87967	796.73511	750.93732	-367.6514	833.12469	738.95343	-364.94391	746.06415	460.95825	-309.85599	694.34875	457.77695	-260.987	765.03577	192.94829	-283.78561	721.21149	208.33012	-235.62621	773.45007	93.815445	-264.89996	710.44574	392.47217	-203.79387	717.30933	364.992	-196.04779	691.72504	360.92566	-222.36922	849.7002	60.79211	-229.81671	630.67859	68.628395	-221.31123	687.49969	114.2298	-220.64131	663.48572	100.83531	-211.28056	662.54779	104.29658	-248.58887
